<svg role="img" viewBox="0 0 24 24" xmlns="http://www.w3.org/2000/svg" fill="#00DC82"><path d="M12.19.002a1.8 1.8 0 0 0-1.549.884L6.032 8.253a.38.38 0 0 0 .327.567h2.87a.93.93 0 0 0 .76-.419l2.45-4.057a.188.188 0 0 1 .322 0l2.45 4.057a.93.93 0 0 0 .76.419h3.67a.38.38 0 0 0 .327-.567L13.358.886A1.8 1.8 0 0 0 12.19.002zm-7.63 8.26a1.8 1.8 0 0 0-1.549.884l-4.61 7.367a.38.38 0 0 0 .327.567h2.87a.93.93 0 0 0 .76-.419l2.45-4.057a.188.188 0 0 1 .322 0l2.45 4.057a.93.93 0 0 0 .76.419h3.67a.38.38 0 0 0 .327-.567l-4.61-7.367a1.8 1.8 0 0 0-1.549-.884z"/></svg>